HIERARCHY
ROOT Hips
{
    OFFSET   0.000000   0.000000   0.000000
    CHANNELS 6 Xposition Yposition Zposition Zrotation Xrotation Yrotation
    JOINT Chest
    {
        OFFSET   0.000000   8.007240   0.000000
        CHANNELS 3 Zrotation Xrotation Yrotation
        JOINT Chest2
        {
            OFFSET   0.000000  22.077100   0.000000
            CHANNELS 3 Zrotation Xrotation Yrotation
            JOINT Neck
            {
                OFFSET   0.000000  23.254800   0.000000
                CHANNELS 3 Zrotation Xrotation Yrotation
                JOINT Head
                {
                    OFFSET   0.000000  14.370000   1.956600
                    CHANNELS 3 Zrotation Xrotation Yrotation
                    End Site
                    {
                        OFFSET   0.000000  19.566000   0.000000
                    }
                }
            }
            JOINT LeftCollar
            {
                OFFSET   3.911900  19.017000  -0.467064
                CHANNELS 3 Zrotation Xrotation Yrotation
                JOINT LeftShoulder
                {
                    OFFSET  10.383700   0.000000   0.000000
                    CHANNELS 3 Zrotation Xrotation Yrotation
                    JOINT LeftElbow
                    {
                        OFFSET  26.662100   0.001476   0.000517
                        CHANNELS 3 Zrotation Xrotation Yrotation
                        JOINT LeftWrist
                        {
                            OFFSET  28.869000  -0.000025  -0.000106
                            CHANNELS 3 Zrotation Xrotation Yrotation
                            JOINT LeftFinger0
                            {
                                OFFSET   2.044660  -2.323460   3.252850
                                CHANNELS 3 Zrotation Xrotation Yrotation
                                JOINT LeftFinger01
                                {
                                    OFFSET   3.088130   0.000000   0.000000
                                    CHANNELS 3 Zrotation Xrotation Yrotation
                                    JOINT LeftFinger02
                                    {
                                        OFFSET   2.639460   0.000000   0.000000
                                        CHANNELS 3 Zrotation Xrotation Yrotation
                                        End Site
                                        {
                                            OFFSET   2.582190   0.000000   0.000000
                                        }
                                    }
                                }
                            }
                            JOINT LeftFinger1
                            {
                                OFFSET   8.364480   0.000000   3.252850
                                CHANNELS 3 Zrotation Xrotation Yrotation
                                JOINT LeftFinger11
                                {
                                    OFFSET   4.646930   0.000000   0.000000
                                    CHANNELS 3 Zrotation Xrotation Yrotation
                                    JOINT LeftFinger12
                                    {
                                        OFFSET   2.323460   0.000000   0.000000
                                        CHANNELS 3 Zrotation Xrotation Yrotation
                                        End Site
                                        {
                                            OFFSET   2.273050   0.000000   0.000000
                                        }
                                    }
                                }
                            }
                            JOINT LeftFinger2
                            {
                                OFFSET   8.364490   0.000015   1.078090
                                CHANNELS 3 Zrotation Xrotation Yrotation
                                JOINT LeftFinger21
                                {
                                    OFFSET   5.111620   0.000000   0.000000
                                    CHANNELS 3 Zrotation Xrotation Yrotation
                                    JOINT LeftFinger22
                                    {
                                        OFFSET   2.788160   0.000016   0.000000
                                        CHANNELS 3 Zrotation Xrotation Yrotation
                                        End Site
                                        {
                                            OFFSET   2.727660   0.000000   0.000000
                                        }
                                    }
                                }
                            }
                            JOINT LeftFinger3
                            {
                                OFFSET   7.899780   0.000017  -1.078090
                                CHANNELS 3 Zrotation Xrotation Yrotation
                                JOINT LeftFinger31
                                {
                                    OFFSET   4.646930   0.000000   0.000000
                                    CHANNELS 3 Zrotation Xrotation Yrotation
                                    JOINT LeftFinger32
                                    {
                                        OFFSET   2.323470   0.000000   0.000000
                                        CHANNELS 3 Zrotation Xrotation Yrotation
                                        End Site
                                        {
                                            OFFSET   2.273050   0.000000   0.000000
                                        }
                                    }
                                }
                            }
                            JOINT LeftFinger4
                            {
                                OFFSET   7.435090   0.000000  -3.252850
                                CHANNELS 3 Zrotation Xrotation Yrotation
                                JOINT LeftFinger41
                                {
                                    OFFSET   3.717550   0.000000   0.000000
                                    CHANNELS 3 Zrotation Xrotation Yrotation
                                    JOINT LeftFinger42
                                    {
                                        OFFSET   1.858770   0.000000   0.000000
                                        CHANNELS 3 Zrotation Xrotation Yrotation
                                        End Site
                                        {
                                            OFFSET   1.818440   0.000000   0.000000
                                        }
                                    }
                                }
                            }
                        }
                    }
                }
            }
            JOINT RightCollar
            {
                OFFSET  -3.911900  19.017000  -0.467063
                CHANNELS 3 Zrotation Xrotation Yrotation
                JOINT RightShoulder
                {
                    OFFSET -10.383700   0.000019   0.000000
                    CHANNELS 3 Zrotation Xrotation Yrotation
                    JOINT RightElbow
                    {
                        OFFSET -26.662100   0.001175   0.000102
                        CHANNELS 3 Zrotation Xrotation Yrotation
                        JOINT RightWrist
                        {
                            OFFSET -28.869000   0.000016  -0.000079
                            CHANNELS 3 Zrotation Xrotation Yrotation
                            JOINT RightFinger0
                            {
                                OFFSET  -2.044660  -2.323490   3.252850
                                CHANNELS 3 Zrotation Xrotation Yrotation
                                JOINT RightFinger01
                                {
                                    OFFSET  -3.088140   0.000000   0.000000
                                    CHANNELS 3 Zrotation Xrotation Yrotation
                                    JOINT RightFinger02
                                    {
                                        OFFSET  -2.639460   0.000000   0.000000
                                        CHANNELS 3 Zrotation Xrotation Yrotation
                                        End Site
                                        {
                                            OFFSET  -2.582190   0.000000   0.000000
                                        }
                                    }
                                }
                            }
                            JOINT RightFinger1
                            {
                                OFFSET  -8.364480   0.000000   3.252850
                                CHANNELS 3 Zrotation Xrotation Yrotation
                                JOINT RightFinger11
                                {
                                    OFFSET  -4.646930   0.000000   0.000000
                                    CHANNELS 3 Zrotation Xrotation Yrotation
                                    JOINT RightFinger12
                                    {
                                        OFFSET  -2.323470   0.000000   0.000000
                                        CHANNELS 3 Zrotation Xrotation Yrotation
                                        End Site
                                        {
                                            OFFSET  -2.273050   0.000000   0.000000
                                        }
                                    }
                                }
                            }
                            JOINT RightFinger2
                            {
                                OFFSET  -8.364480   0.000000   1.078090
                                CHANNELS 3 Zrotation Xrotation Yrotation
                                JOINT RightFinger21
                                {
                                    OFFSET  -5.111620   0.000000   0.000000
                                    CHANNELS 3 Zrotation Xrotation Yrotation
                                    JOINT RightFinger22
                                    {
                                        OFFSET  -2.788160   0.000000   0.000000
                                        CHANNELS 3 Zrotation Xrotation Yrotation
                                        End Site
                                        {
                                            OFFSET  -2.727660   0.000000   0.000000
                                        }
                                    }
                                }
                            }
                            JOINT RightFinger3
                            {
                                OFFSET  -7.899780   0.000000  -1.078090
                                CHANNELS 3 Zrotation Xrotation Yrotation
                                JOINT RightFinger31
                                {
                                    OFFSET  -4.646930   0.000000   0.000000
                                    CHANNELS 3 Zrotation Xrotation Yrotation
                                    JOINT RightFinger32
                                    {
                                        OFFSET  -2.323470   0.000000   0.000000
                                        CHANNELS 3 Zrotation Xrotation Yrotation
                                        End Site
                                        {
                                            OFFSET  -2.273050   0.000000   0.000000
                                        }
                                    }
                                }
                            }
                            JOINT RightFinger4
                            {
                                OFFSET  -7.435090   0.000000  -3.252850
                                CHANNELS 3 Zrotation Xrotation Yrotation
                                JOINT RightFinger41
                                {
                                    OFFSET  -3.717550   0.000000   0.000000
                                    CHANNELS 3 Zrotation Xrotation Yrotation
                                    JOINT RightFinger42
                                    {
                                        OFFSET  -1.858770   0.000000   0.000000
                                        CHANNELS 3 Zrotation Xrotation Yrotation
                                        End Site
                                        {
                                            OFFSET  -1.818440   0.000000   0.000000
                                        }
                                    }
                                }
                            }
                        }
                    }
                }
            }
        }
    }
    JOINT LeftHip
    {
        OFFSET   9.783040   0.000000   0.000000
        CHANNELS 3 Zrotation Xrotation Yrotation
        JOINT LeftKnee
        {
            OFFSET   0.000032 -41.789100  -0.002222
            CHANNELS 3 Zrotation Xrotation Yrotation
            JOINT LeftAnkle
            {
                OFFSET   0.000087 -41.133200  -0.000135
                CHANNELS 3 Zrotation Xrotation Yrotation
                JOINT LeftToe
                {
                    OFFSET   0.000000  -6.358960  14.674500
                    CHANNELS 3 Zrotation Xrotation Yrotation
                    End Site
                    {
                        OFFSET   0.000000   0.000000   3.913200
                    }
                }
            }
        }
    }
    JOINT RightHip
    {
        OFFSET  -9.783040   0.000000   0.000000
        CHANNELS 3 Zrotation Xrotation Yrotation
        JOINT RightKnee
        {
            OFFSET   0.000047 -41.789100  -0.000896
            CHANNELS 3 Zrotation Xrotation Yrotation
            JOINT RightAnkle
            {
                OFFSET  -0.000117 -41.133300  -0.000248
                CHANNELS 3 Zrotation Xrotation Yrotation
                JOINT RightToe
                {
                    OFFSET   0.000000  -6.358970  14.674500
                    CHANNELS 3 Zrotation Xrotation Yrotation
                    End Site
                    {
                        OFFSET   0.000000   0.000000   3.913200
                    }
                }
            }
        }
    }
}
MOTION
Frames: 4
Frame Time:   0.016667
 -0.867705  89.588800  -6.063330  -2.996360 -10.525500   2.963800   0.942359   5.133220  -1.304420   2.014510  10.242800  -2.710190   1.795190   0.357741  -0.009719   2.943160   0.723119   3.739240  -6.659490   0.752640   0.489542 -74.116700  19.267500  -7.024180   4.077390  -4.163540 -29.648300  10.130900 -15.909000  -1.044310  40.355800  37.975500 -66.513100 -34.930000   0.000774   0.000595 -12.465000   0.001089   0.000119 -28.148200   2.531330  -4.716700 -23.107600   0.005070  -0.000107 -16.175300   0.004008   0.001690 -26.938600  -2.272770   4.466980 -27.069200  -0.018245   0.000312 -18.028100   0.000608   0.000413 -27.098700  -2.283820   4.460110 -27.738100  -0.001848   0.001854 -18.473600  -0.002330   0.002830 -28.047400  -3.617570   6.748220 -42.385600  -0.003322  -0.001253 -28.228800  -0.001133  -0.013326  10.107300  -0.750125   5.350010  70.509600   9.244530  -7.433840  -1.575080  -3.107480  13.767500 -13.022600  -6.072040   5.216430 -46.031900  37.373800  77.972500  18.614900   0.003194  -0.009567   4.307450   0.004881  -0.004792  25.927500   6.974830  14.055100  21.916300  -0.001486   0.000991  15.341400   0.008430  -0.003714  26.859400   4.537510   8.882410  27.880800  -0.005444  -0.003306  18.555000  -0.005043  -0.001139  24.026200   3.274670   7.304840  24.237700  -0.000646  -0.000792  16.142300   0.000905  -0.003626  27.723600   1.604150   3.038350  41.652400  -0.004914  -0.007414  27.738600  -0.003821  -0.001458   5.696270   9.992360  -0.617846   1.124220   1.201000  12.117900  -2.559690  -0.974558  -1.228930  -0.000000   0.000000   0.000000   4.898400   6.707970   1.026450  -1.823330   6.819910 -23.546300   3.093470  -5.355540  -0.603216  -0.000000   0.000000  -0.000000
 -0.875334  89.588800  -6.063060  -2.998080 -10.555400   2.946120   0.948666   5.175040  -1.333710   2.031030  10.325700  -2.770680   1.794860   0.343011  -0.009679   2.943060   0.693728   3.796070  -6.662110   0.746089   0.543047 -73.895600  19.659400  -7.400260   4.154020  -4.121040 -30.201300  10.244600 -16.635700  -0.923109  40.238400  37.859600 -66.389300 -34.993600   0.000769   0.000601 -12.496800   0.001085   0.000124 -28.162000   2.534710  -4.721330 -23.117800   0.004999  -0.000108 -16.182500   0.003878   0.001680 -26.937900  -2.259010   4.440060 -27.069200  -0.015370   0.000340 -18.028100   0.000618   0.000439 -27.108700  -2.270240   4.433110 -27.783500  -0.001840   0.001863 -18.503800  -0.002332   0.002842 -28.118700  -3.733670   6.939680 -42.515300  -0.003330  -0.001254 -28.315100  -0.001142  -0.013329  10.116900  -0.780090   5.409930  70.484800   9.278670  -7.408720  -1.576330  -3.115280  13.799800 -13.014100  -6.067230   5.214520 -46.038600  37.378500  77.975900  18.624100   0.003196  -0.009568   4.312010   0.004883  -0.004795  25.917700   6.974670  14.053600  21.908600  -0.001486   0.000999  15.336000   0.008433  -0.003717  26.859400   4.537520   8.882160  27.870600  -0.005448  -0.003308  18.555000  -0.005043  -0.001136  24.026600   3.274670   7.304840  24.238100  -0.000647  -0.000790  16.142600   0.000905  -0.003620  27.723800   1.604160   3.038150  41.652400  -0.004912  -0.007421  27.738800  -0.003821  -0.001454   5.706630  10.036800  -0.617736   1.119890   1.178910  12.140700  -2.565140  -0.963444  -1.236490  -0.000000   0.000000   0.000000   4.899830   6.742450   1.009760  -1.818140   6.800540 -23.558200   3.075100  -5.294930  -0.572473  -0.000000   0.000000   0.000000
 -0.888172  89.588700  -6.062790  -3.001850 -10.606300   2.911740   0.959691   5.245350  -1.381120   2.059650  10.465100  -2.868780   1.794530   0.318824  -0.009628   2.943880   0.645272   3.889790  -6.665210   0.732033   0.641552 -73.526700  20.254100  -8.026910   4.314850  -4.016120 -31.177700  10.419000 -18.011300  -0.725618  39.962100  37.551100 -66.215700 -35.057300   0.000755   0.000608 -12.528700   0.001072   0.000137 -28.172800   2.558360  -4.753750 -23.128000   0.004929  -0.000108 -16.189600   0.003747   0.001669 -26.949700  -2.162620   4.251620 -27.069200  -0.009838   0.000368 -18.028100   0.000628   0.000465 -27.131200  -2.175130   4.244120 -27.829000  -0.001827   0.001884 -18.534100  -0.002333   0.002866 -28.300900  -3.916840   7.220060 -42.824900  -0.003350  -0.001258 -28.521300  -0.001151  -0.013337  10.133400  -0.827239   5.515080  70.441600   9.333080  -7.367410  -1.578570  -3.126050  13.855500 -13.002500  -6.062440   5.210730 -46.054400  37.387800  77.985400  18.644300   0.003202  -0.009577   4.322120   0.004887  -0.004800  25.908300   6.974600  14.049200  21.901000  -0.001486   0.001014  15.330700   0.008441  -0.003723  26.859600   4.537540   8.880390  27.860300  -0.005454  -0.003313  18.555000  -0.005044  -0.001126  24.027100   3.274670   7.304840  24.238600  -0.000649  -0.000780  16.142900   0.000905  -0.003605  27.724100   1.604180   3.037860  41.652400  -0.004910  -0.007442  27.739100  -0.003819  -0.001443   5.724990  10.112600  -0.617565   1.112790   1.142660  12.180800  -2.573730  -0.946180  -1.244040  -0.000000   0.000000  -0.000000   4.901430   6.798790   0.993115  -1.810130   6.772450 -23.577100   3.049750  -5.200870  -0.522306  -0.000000   0.000000   0.000000
 -0.898931  89.588700  -6.062820  -3.011380 -10.650300   2.872080   0.969601   5.303550  -1.415480   2.084560  10.580500  -2.940270   1.794600   0.298893  -0.009620   2.946130   0.604696   3.960510  -6.652080   0.714578   0.743695 -73.246600  20.614900  -8.524040   4.510970  -3.851460 -32.055700  10.521400 -19.492000  -0.572346  39.494900  36.970200 -66.113500 -34.976800   0.000731   0.000568 -12.488400   0.001052   0.000158 -28.106600   2.822380  -5.222950 -23.105600   0.005330  -0.000099 -16.173900   0.003781   0.001693 -27.031100  -1.883120   3.691980 -27.345200  -0.002171   0.000298 -18.211900   0.000601   0.000408 -27.142300  -1.891300   3.687400 -27.794600  -0.001816   0.001918 -18.511200  -0.002333   0.002895 -28.622700  -4.020900   7.313840 -43.325400  -0.003383  -0.001265 -28.854700  -0.001122  -0.013348  10.147400  -0.859371   5.611040  70.403600   9.367710  -7.336320  -1.581240  -3.128200  13.906000 -12.999700  -6.065330   5.205910 -46.061200  37.399000  78.002400  18.672200   0.003213  -0.009601   4.336120   0.004892  -0.004802  25.916600   6.976120  14.039200  21.907700  -0.001489   0.001031  15.335400   0.008454  -0.003732  26.861600   4.531090   8.868300  27.869200  -0.005460  -0.003318  18.560900  -0.005053  -0.001108  24.028300   3.270970   7.295970  24.238800  -0.000648  -0.000759  16.143100   0.000904  -0.003585  27.724000   1.604220   3.037740  41.652000  -0.004911  -0.007481  27.739000  -0.003814  -0.001428   5.743120  10.179700  -0.617404   1.106610   1.113200  12.219300  -2.579560  -0.934891  -1.243780  -0.000000   0.000000   0.000000   4.906440   6.842270   0.994900  -1.802990   6.759330 -23.593700   3.040610  -5.139580  -0.483799   0.000000   0.000000   0.000000
